<svg width="38" height="38" viewBox="0 0 38 38" fill="none" xmlns="http://www.w3.org/2000/svg">
<path d="M1 12C1 5.92487 5.92487 1 12 1H19H26C32.0751 1 37 5.92487 37 12V26C37 32.0751 32.0751 37 26 37H12C5.92487 37 1 32.0751 1 26V12Z" fill="#FBFCFF" stroke="#F2F4F9" stroke-width="2"/>
<mask id="mask0" mask-type="alpha" maskUnits="userSpaceOnUse" x="1" y="0" width="36" height="36">
<path d="M1.5 12C1.5 5.64872 6.64873 0.5 13 0.5H19H25C31.3513 0.5 36.5 5.64873 36.5 12V24C36.5 30.3513 31.3513 35.5 25 35.5H13C6.64872 35.5 1.5 30.3513 1.5 24V12Z" fill="#FBFCFF" stroke="#F2F4F9"/>
</mask>
<g mask="url(#mask0)">
<path fill-rule="evenodd" clip-rule="evenodd" d="M9.32049 30.5398C8.02454 31.7511 6.94734 33.2132 6.16842 34.854L6.16642 34.8538C6.16071 34.8659 6.1553 34.878 6.15022 34.8902C6.04775 35.1202 6 35.3598 6 35.5948C6 35.9158 6.0922 36.2307 6.25775 36.5023C6.4251 36.7768 6.66569 37.0042 6.9603 37.1469C7.1781 37.2522 7.42309 37.3124 7.68724 37.3124H29.9655C30.2283 37.3124 30.4732 37.2523 30.6915 37.1469C30.9859 37.0046 31.2274 36.779 31.395 36.5063C31.5612 36.2363 31.6544 35.9201 31.6544 35.5935H31.6513C31.6513 35.3422 31.5996 35.089 31.4875 34.8504C31.4786 34.8314 31.4694 34.8126 31.4592 34.7946C30.6913 33.1935 29.6244 31.7642 28.3361 30.5751C23.0573 25.7034 14.6076 25.5978 9.32049 30.5398Z" fill="#97A4B0"/>
<path fill-rule="evenodd" clip-rule="evenodd" d="M15.0364 21.9075H22.6183V27.403L18.8174 32.3644L15.0364 27.403V21.9075Z" fill="#D5DBE0"/>
<path d="M12.1928 20.2708C12.8235 20.2708 13.3347 19.4535 13.3347 18.4453C13.3347 17.4371 12.8235 16.6198 12.1928 16.6198C11.5622 16.6198 11.051 17.4371 11.051 18.4453C11.051 19.4535 11.5622 20.2708 12.1928 20.2708Z" fill="#E9EFF4"/>
<path d="M25.4621 20.271C26.0927 20.271 26.604 19.4537 26.604 18.4455C26.604 17.4373 26.0927 16.62 25.4621 16.62C24.8315 16.62 24.3203 17.4373 24.3203 18.4455C24.3203 19.4537 24.8315 20.271 25.4621 20.271Z" fill="#E9EFF4"/>
<path d="M18.8272 26.2579C22.7086 26.2579 25.8551 22.6683 25.8551 18.2403C25.8551 13.8122 22.7086 10.2226 18.8272 10.2226C14.9458 10.2226 11.7993 13.8122 11.7993 18.2403C11.7993 22.6683 14.9458 26.2579 18.8272 26.2579Z" fill="#E9EFF4"/>
<path fill-rule="evenodd" clip-rule="evenodd" d="M25.3972 19.0199L24.7125 18.9966V17.5229C24.7125 17.5229 24.3574 15.2539 22.988 15.2539L17.992 15.2305C17.992 15.2305 16.3689 15.0667 15.3038 12.9147C15.3038 12.9147 14.5938 12.6574 14.1626 15.0901C14.1626 15.0901 12.7678 16.634 12.92 18.9731L12.1211 19.0434C10.6346 14.9765 10.4401 8.18822 17.0282 8.27142C17.0282 8.27142 20.7054 7.35914 23.419 8.87962C23.419 8.87962 28.9349 10.4702 25.3972 19.0199L25.3972 19.0199Z" fill="#7F8E9C"/>
</g>
</svg>
